<?xml version="1.0" encoding="UTF-8" standalone="no"?>
<svg
   xmlns:dc="http://purl.org/dc/elements/1.1/"
   xmlns:cc="http://creativecommons.org/ns#"
   xmlns:rdf="http://www.w3.org/1999/02/22-rdf-syntax-ns#"
   xmlns:svg="http://www.w3.org/2000/svg"
   xmlns="http://www.w3.org/2000/svg"
   xmlns:sodipodi="http://sodipodi.sourceforge.net/DTD/sodipodi-0.dtd"
   xmlns:inkscape="http://www.inkscape.org/namespaces/inkscape"
   width="1889.7612"
   height="1284.4526"
   viewBox="0 0 1889.7612 1284.4526"
   version="1.1"
   xml:space="preserve"
   style="clip-rule:evenodd;fill-rule:evenodd;stroke-linejoin:round;stroke-miterlimit:1.41420996"
   id="svg26"
   sodipodi:docname="pepsi.svg"
   inkscape:version="0.92.2 5c3e80d, 2017-08-06"><metadata
     id="metadata32"><rdf:RDF><cc:Work
         rdf:about=""><dc:format>image/svg+xml</dc:format><dc:type
           rdf:resource="http://purl.org/dc/dcmitype/StillImage" /><dc:title></dc:title></cc:Work></rdf:RDF></metadata><defs
     id="defs30" /><sodipodi:namedview
     pagecolor="#ffffff"
     bordercolor="#666666"
     borderopacity="1"
     objecttolerance="10"
     gridtolerance="10"
     guidetolerance="10"
     inkscape:pageopacity="0"
     inkscape:pageshadow="2"
     inkscape:window-width="1280"
     inkscape:window-height="755"
     id="namedview28"
     showgrid="false"
     fit-margin-top="0"
     fit-margin-left="0"
     fit-margin-right="0"
     fit-margin-bottom="0"
     inkscape:zoom="0.23653782"
     inkscape:cx="944.88062"
     inkscape:cy="642.22632"
     inkscape:window-x="0"
     inkscape:window-y="1"
     inkscape:window-maximized="1"
     inkscape:current-layer="svg26" /><g
     transform="matrix(0.892421,0,0,0.892421,-161.86107,-922.81686)"
     id="g4"><path
       d="M 2298.94,2473.35 H 181.373 V 1034.06 c 705.856,0 1411.717,0 2117.567,0 z M 196.209,2458.51 H 2284.11 V 1048.89 H 196.209 c 0,469.88 0,939.75 0,1409.62 z"
       style="fill:#231f20"
       id="path2"
       inkscape:connector-curvature="0" /></g><g
     transform="matrix(0.57498,0,0,0.57498,827.69393,570.20314)"
     id="g8"><path
       d="m 626.007,-391.164 c 164.028,0 290.579,34.072 379.893,71.162 -158.219,-291.578 -467.06,-489.566 -822.155,-489.566 -327.207,0 -614.977,168.237 -782,422.807 53.571,37.619 171.598,96.234 387.416,96.234 317.797,0 476.677,-100.637 836.846,-100.637 z"
       style="fill:#dc1e27"
       id="path6"
       inkscape:connector-curvature="0" /></g><g
     transform="matrix(0.57498,0,0,0.57498,827.69393,570.20314)"
     id="g12"><path
       d="M 971.736,627.934 C 868.2,582.462 715.199,530.403 557.162,530.403 c -280.714,0 -391.947,90.05 -773.291,90.05 -211.988,0 -345.327,-26.182 -422.025,-49.451 158.321,291.339 467.02,489.078 821.899,489.078 331.201,0 621.936,-172.376 787.991,-432.146 z"
       style="fill:#26285d"
       id="path10"
       inkscape:connector-curvature="0" /></g><g
     transform="matrix(0.57498,0,0,0.57498,827.69393,570.20314)"
     id="g16"><path
       d="m 786.246,-809.568 c 308.374,194.35 513.734,540.269 513.734,934.841 0,394.557 -205.34,740.423 -513.674,934.807 H 1580.7 V -809.568 Z"
       style="fill:#4b72c0"
       id="path14"
       inkscape:connector-curvature="0" /></g><g
     transform="matrix(0.57498,0,0,0.57498,827.69393,570.20314)"
     id="g20"><path
       d="m -904.667,125.519 c 0,-394.676 205.358,-740.686 513.736,-935.087 H -1185.37 V 1060.57 h 794.38 C -699.332,866.136 -904.667,520.18 -904.667,125.519 Z"
       style="fill:#dc1e27"
       id="path18"
       inkscape:connector-curvature="0" /></g><g
     transform="matrix(0.531343,0,0,0.531343,836.16393,575.30314)"
     id="g24"><path
       d="m 1025.86,34.325 h -134.1 c 0,0 -4.851,-66.535 -98.082,-66.535 -93.224,0 -93.954,44.861 -93.954,44.861 0,0 -11.563,34.005 146.705,42.693 158.271,8.68 186.451,66.572 186.451,129.516 0,62.951 -42.629,176.568 -224.755,176.568 -182.118,0 -245.71,-113.617 -245.71,-168.603 h 139.477 c 0,0 -1.452,66.572 110.57,66.572 112.021,0 93.238,-82.494 36.858,-82.494 -56.372,0 -282.569,10.125 -282.569,-133.138 0,-143.27 143.814,-171.486 226.197,-171.486 82.398,0 213.922,10.848 232.912,162.046 z m 34.57,-148.515 h 123.04 v 465.924 h -123.04 z m -656.053,0 c 81.429,0 147.979,66.55 147.979,147.971 v 29.9 c 0,81.422 -66.55,147.972 -147.979,147.972 H 236.862 V 351.734 H 113.835 c 0,-155.303 0,-310.621 0,-465.924 96.852,0 193.697,0 290.542,0 z M 236.862,-5.521 h 134.016 c 29.833,0 54.234,24.416 54.234,54.249 0,29.84 -24.401,54.248 -54.234,54.248 H 236.862 Z M 23.018,59.166 V 171.18 h -224.931 v 64.584 H 82.005 v 115.97 H -324.947 V -114.19 H 78.876 V -2.176 H -201.913 V 59.166 Z M -504.875,-114.19 c 81.429,0 147.972,66.55 147.972,147.971 v 29.9 c 0,81.422 -66.543,147.972 -147.972,147.972 H -672.39 v 140.081 h -123.034 c 0,-155.303 0,-310.621 0,-465.924 z M -672.39,-5.521 h 134.009 c 29.833,0 54.242,24.416 54.242,54.249 0,29.84 -24.409,54.248 -54.242,54.248 H -672.39 Z"
       style="fill:#26285d"
       id="path22"
       inkscape:connector-curvature="0" /></g></svg>